<mxfile host="app.diagrams.net" modified="2021-04-25T01:54:15.141Z" agent="5.0 (Windows NT 10.0; Win64; x64) AppleWebKit/537.36 (KHTML, like Gecko) Chrome/90.0.4430.85 Safari/537.36" etag="Dy9DZkG0H1_xFc61crJZ" version="14.6.6" type="github">
  <diagram id="eaW2Op4QjbFX33sN2T9P" name="Page-1">
    <mxGraphModel dx="1038" dy="548" grid="1" gridSize="10" guides="1" tooltips="1" connect="1" arrows="1" fold="1" page="1" pageScale="1" pageWidth="827" pageHeight="1169" math="0" shadow="0">
      <root>
        <mxCell id="0" />
        <mxCell id="1" parent="0" />
        <mxCell id="OPHa_PDICa3LDSfkEfdJ-1" value="Database" style="shape=umlActor;verticalLabelPosition=bottom;verticalAlign=top;html=1;outlineConnect=0;" parent="1" vertex="1">
          <mxGeometry x="985" y="328" width="30" height="60" as="geometry" />
        </mxCell>
        <mxCell id="OPHa_PDICa3LDSfkEfdJ-2" style="edgeStyle=orthogonalEdgeStyle;rounded=0;orthogonalLoop=1;jettySize=auto;html=1;exitX=0.359;exitY=0.985;exitDx=0;exitDy=0;entryX=1.003;entryY=0.394;entryDx=0;entryDy=0;entryPerimeter=0;startArrow=none;startFill=0;endArrow=none;endFill=0;exitPerimeter=0;" parent="1" source="OPHa_PDICa3LDSfkEfdJ-35" target="OPHa_PDICa3LDSfkEfdJ-26" edge="1">
          <mxGeometry relative="1" as="geometry">
            <Array as="points">
              <mxPoint x="450" y="484" />
            </Array>
          </mxGeometry>
        </mxCell>
        <mxCell id="OPHa_PDICa3LDSfkEfdJ-3" style="edgeStyle=orthogonalEdgeStyle;rounded=0;orthogonalLoop=1;jettySize=auto;html=1;exitX=0.5;exitY=1;exitDx=0;exitDy=0;exitPerimeter=0;" parent="1" edge="1">
          <mxGeometry relative="1" as="geometry">
            <mxPoint x="135" y="184.9999999999999" as="sourcePoint" />
            <mxPoint x="135" y="184.9999999999999" as="targetPoint" />
          </mxGeometry>
        </mxCell>
        <mxCell id="OPHa_PDICa3LDSfkEfdJ-4" style="edgeStyle=orthogonalEdgeStyle;rounded=0;orthogonalLoop=1;jettySize=auto;html=1;exitX=0.5;exitY=1;exitDx=0;exitDy=0;exitPerimeter=0;" parent="1" edge="1">
          <mxGeometry relative="1" as="geometry">
            <mxPoint x="135" y="184.9999999999999" as="sourcePoint" />
            <mxPoint x="135" y="184.9999999999999" as="targetPoint" />
          </mxGeometry>
        </mxCell>
        <mxCell id="OPHa_PDICa3LDSfkEfdJ-5" style="edgeStyle=orthogonalEdgeStyle;rounded=0;orthogonalLoop=1;jettySize=auto;html=1;exitX=0;exitY=0.5;exitDx=0;exitDy=0;startArrow=none;startFill=0;endArrow=none;endFill=0;" parent="1" source="OPHa_PDICa3LDSfkEfdJ-26" edge="1">
          <mxGeometry relative="1" as="geometry">
            <mxPoint x="130" y="430" as="targetPoint" />
            <Array as="points">
              <mxPoint x="170" y="490" />
              <mxPoint x="170" y="430" />
            </Array>
          </mxGeometry>
        </mxCell>
        <object label="Manager" id="OPHa_PDICa3LDSfkEfdJ-6">
          <mxCell style="shape=umlActor;verticalLabelPosition=bottom;verticalAlign=top;html=1;outlineConnect=0;" parent="1" vertex="1">
            <mxGeometry x="90" y="390" width="30" height="60" as="geometry" />
          </mxCell>
        </object>
        <mxCell id="OPHa_PDICa3LDSfkEfdJ-7" style="edgeStyle=orthogonalEdgeStyle;rounded=0;orthogonalLoop=1;jettySize=auto;html=1;exitX=1;exitY=0.5;exitDx=0;exitDy=0;entryX=0.25;entryY=1;entryDx=0;entryDy=0;startArrow=none;startFill=0;endArrow=none;endFill=0;" parent="1" source="OPHa_PDICa3LDSfkEfdJ-16" target="OPHa_PDICa3LDSfkEfdJ-35" edge="1">
          <mxGeometry relative="1" as="geometry" />
        </mxCell>
        <mxCell id="OPHa_PDICa3LDSfkEfdJ-8" style="edgeStyle=orthogonalEdgeStyle;rounded=0;orthogonalLoop=1;jettySize=auto;html=1;exitX=0;exitY=0.5;exitDx=0;exitDy=0;startArrow=none;startFill=0;endArrow=none;endFill=0;" parent="1" source="OPHa_PDICa3LDSfkEfdJ-16" edge="1">
          <mxGeometry relative="1" as="geometry">
            <mxPoint x="130" y="410" as="targetPoint" />
            <Array as="points">
              <mxPoint x="170" y="350" />
              <mxPoint x="170" y="410" />
            </Array>
          </mxGeometry>
        </mxCell>
        <mxCell id="OPHa_PDICa3LDSfkEfdJ-9" value="conveys-requests ▶" style="text;html=1;strokeColor=none;fillColor=none;align=center;verticalAlign=middle;whiteSpace=wrap;rounded=0;rotation=0;" parent="1" vertex="1">
          <mxGeometry x="501" y="394" width="130" height="20" as="geometry" />
        </mxCell>
        <mxCell id="OPHa_PDICa3LDSfkEfdJ-10" value="◀ prepares" style="text;html=1;strokeColor=none;fillColor=none;align=center;verticalAlign=middle;whiteSpace=wrap;rounded=0;" parent="1" vertex="1">
          <mxGeometry x="435" y="507" width="66" height="20" as="geometry" />
        </mxCell>
        <mxCell id="OPHa_PDICa3LDSfkEfdJ-11" value="receives ▶" style="text;html=1;strokeColor=none;fillColor=none;align=center;verticalAlign=middle;whiteSpace=wrap;rounded=0;" parent="1" vertex="1">
          <mxGeometry x="359" y="352" width="66" height="20" as="geometry" />
        </mxCell>
        <mxCell id="OPHa_PDICa3LDSfkEfdJ-12" value="conveys-requests ▶" style="text;html=1;strokeColor=none;fillColor=none;align=center;verticalAlign=middle;whiteSpace=wrap;rounded=0;rotation=0;" parent="1" vertex="1">
          <mxGeometry x="594" y="340" width="130" height="20" as="geometry" />
        </mxCell>
        <mxCell id="OPHa_PDICa3LDSfkEfdJ-13" value="◀ posts" style="text;html=1;strokeColor=none;fillColor=none;align=center;verticalAlign=middle;whiteSpace=wrap;rounded=0;" parent="1" vertex="1">
          <mxGeometry x="365" y="462" width="66" height="20" as="geometry" />
        </mxCell>
        <mxCell id="OPHa_PDICa3LDSfkEfdJ-14" value="" style="group" parent="1" vertex="1" connectable="0">
          <mxGeometry x="200" y="300" width="150" height="110" as="geometry" />
        </mxCell>
        <mxCell id="OPHa_PDICa3LDSfkEfdJ-15" value="" style="group" parent="OPHa_PDICa3LDSfkEfdJ-14" vertex="1" connectable="0">
          <mxGeometry x="10" y="20" width="140" height="90" as="geometry" />
        </mxCell>
        <mxCell id="OPHa_PDICa3LDSfkEfdJ-16" value="&amp;lt;&amp;lt;boundary&amp;gt;&amp;gt;&lt;br&gt;Search Request" style="rounded=0;whiteSpace=wrap;html=1;" parent="OPHa_PDICa3LDSfkEfdJ-15" vertex="1">
          <mxGeometry width="140" height="60" as="geometry" />
        </mxCell>
        <mxCell id="OPHa_PDICa3LDSfkEfdJ-17" value="&amp;nbsp;searchParams" style="rounded=0;whiteSpace=wrap;html=1;align=left;" parent="OPHa_PDICa3LDSfkEfdJ-15" vertex="1">
          <mxGeometry y="60" width="140" height="30" as="geometry" />
        </mxCell>
        <mxCell id="OPHa_PDICa3LDSfkEfdJ-18" value="" style="group" parent="OPHa_PDICa3LDSfkEfdJ-14" vertex="1" connectable="0">
          <mxGeometry width="30" height="40" as="geometry" />
        </mxCell>
        <mxCell id="OPHa_PDICa3LDSfkEfdJ-19" value="" style="whiteSpace=wrap;html=1;shape=mxgraph.basic.document" parent="OPHa_PDICa3LDSfkEfdJ-18" vertex="1">
          <mxGeometry width="30" height="40" as="geometry" />
        </mxCell>
        <mxCell id="OPHa_PDICa3LDSfkEfdJ-20" value="" style="endArrow=none;html=1;" parent="OPHa_PDICa3LDSfkEfdJ-18" edge="1">
          <mxGeometry width="50" height="50" relative="1" as="geometry">
            <mxPoint x="5" y="9" as="sourcePoint" />
            <mxPoint x="25" y="9" as="targetPoint" />
          </mxGeometry>
        </mxCell>
        <mxCell id="OPHa_PDICa3LDSfkEfdJ-21" value="" style="endArrow=none;html=1;" parent="OPHa_PDICa3LDSfkEfdJ-18" edge="1">
          <mxGeometry width="50" height="50" relative="1" as="geometry">
            <mxPoint x="5" y="15" as="sourcePoint" />
            <mxPoint x="25" y="15" as="targetPoint" />
          </mxGeometry>
        </mxCell>
        <mxCell id="OPHa_PDICa3LDSfkEfdJ-22" value="" style="endArrow=none;html=1;" parent="OPHa_PDICa3LDSfkEfdJ-18" edge="1">
          <mxGeometry width="50" height="50" relative="1" as="geometry">
            <mxPoint x="5" y="21" as="sourcePoint" />
            <mxPoint x="25" y="21" as="targetPoint" />
          </mxGeometry>
        </mxCell>
        <mxCell id="OPHa_PDICa3LDSfkEfdJ-23" value="" style="endArrow=none;html=1;" parent="OPHa_PDICa3LDSfkEfdJ-18" edge="1">
          <mxGeometry width="50" height="50" relative="1" as="geometry">
            <mxPoint x="5" y="27" as="sourcePoint" />
            <mxPoint x="25" y="27" as="targetPoint" />
          </mxGeometry>
        </mxCell>
        <mxCell id="OPHa_PDICa3LDSfkEfdJ-24" value="" style="endArrow=none;html=1;" parent="OPHa_PDICa3LDSfkEfdJ-18" edge="1">
          <mxGeometry width="50" height="50" relative="1" as="geometry">
            <mxPoint x="5" y="33" as="sourcePoint" />
            <mxPoint x="25" y="33" as="targetPoint" />
          </mxGeometry>
        </mxCell>
        <mxCell id="OPHa_PDICa3LDSfkEfdJ-25" value="" style="group" parent="1" vertex="1" connectable="0">
          <mxGeometry x="200" y="440" width="150" height="80" as="geometry" />
        </mxCell>
        <mxCell id="OPHa_PDICa3LDSfkEfdJ-26" value="&amp;lt;&amp;lt;boundary&amp;gt;&amp;gt;&lt;br&gt;Interface Page" style="rounded=0;whiteSpace=wrap;html=1;" parent="OPHa_PDICa3LDSfkEfdJ-25" vertex="1">
          <mxGeometry x="10" y="20" width="140" height="60" as="geometry" />
        </mxCell>
        <mxCell id="OPHa_PDICa3LDSfkEfdJ-27" value="" style="group" parent="OPHa_PDICa3LDSfkEfdJ-25" vertex="1" connectable="0">
          <mxGeometry width="30" height="40" as="geometry" />
        </mxCell>
        <mxCell id="OPHa_PDICa3LDSfkEfdJ-28" value="" style="whiteSpace=wrap;html=1;shape=mxgraph.basic.document" parent="OPHa_PDICa3LDSfkEfdJ-27" vertex="1">
          <mxGeometry width="30" height="40" as="geometry" />
        </mxCell>
        <mxCell id="OPHa_PDICa3LDSfkEfdJ-29" value="" style="endArrow=none;html=1;" parent="OPHa_PDICa3LDSfkEfdJ-27" edge="1">
          <mxGeometry width="50" height="50" relative="1" as="geometry">
            <mxPoint x="5" y="9" as="sourcePoint" />
            <mxPoint x="25" y="9" as="targetPoint" />
          </mxGeometry>
        </mxCell>
        <mxCell id="OPHa_PDICa3LDSfkEfdJ-30" value="" style="endArrow=none;html=1;" parent="OPHa_PDICa3LDSfkEfdJ-27" edge="1">
          <mxGeometry width="50" height="50" relative="1" as="geometry">
            <mxPoint x="5" y="15" as="sourcePoint" />
            <mxPoint x="25" y="15" as="targetPoint" />
          </mxGeometry>
        </mxCell>
        <mxCell id="OPHa_PDICa3LDSfkEfdJ-31" value="" style="endArrow=none;html=1;" parent="OPHa_PDICa3LDSfkEfdJ-27" edge="1">
          <mxGeometry width="50" height="50" relative="1" as="geometry">
            <mxPoint x="5" y="21" as="sourcePoint" />
            <mxPoint x="25" y="21" as="targetPoint" />
          </mxGeometry>
        </mxCell>
        <mxCell id="OPHa_PDICa3LDSfkEfdJ-32" value="" style="endArrow=none;html=1;" parent="OPHa_PDICa3LDSfkEfdJ-27" edge="1">
          <mxGeometry width="50" height="50" relative="1" as="geometry">
            <mxPoint x="5" y="27" as="sourcePoint" />
            <mxPoint x="25" y="27" as="targetPoint" />
          </mxGeometry>
        </mxCell>
        <mxCell id="OPHa_PDICa3LDSfkEfdJ-33" value="" style="endArrow=none;html=1;" parent="OPHa_PDICa3LDSfkEfdJ-27" edge="1">
          <mxGeometry width="50" height="50" relative="1" as="geometry">
            <mxPoint x="5" y="33" as="sourcePoint" />
            <mxPoint x="25" y="33" as="targetPoint" />
          </mxGeometry>
        </mxCell>
        <mxCell id="OPHa_PDICa3LDSfkEfdJ-34" value="" style="group" parent="1" vertex="1" connectable="0">
          <mxGeometry x="385" y="247" width="155" height="73" as="geometry" />
        </mxCell>
        <mxCell id="OPHa_PDICa3LDSfkEfdJ-35" value="&amp;lt;&amp;lt;control&amp;gt;&amp;gt;&lt;br&gt;Controller" style="rounded=0;whiteSpace=wrap;html=1;" parent="OPHa_PDICa3LDSfkEfdJ-34" vertex="1">
          <mxGeometry x="15" y="13" width="140" height="60" as="geometry" />
        </mxCell>
        <mxCell id="OPHa_PDICa3LDSfkEfdJ-36" value="" style="verticalLabelPosition=bottom;verticalAlign=top;html=1;shape=mxgraph.basic.smiley" parent="OPHa_PDICa3LDSfkEfdJ-34" vertex="1">
          <mxGeometry width="30" height="30" as="geometry" />
        </mxCell>
        <mxCell id="OPHa_PDICa3LDSfkEfdJ-37" style="edgeStyle=orthogonalEdgeStyle;rounded=0;orthogonalLoop=1;jettySize=auto;html=1;exitX=1;exitY=0.5;exitDx=0;exitDy=0;entryX=0;entryY=0.5;entryDx=0;entryDy=0;endArrow=none;endFill=0;" parent="1" source="OPHa_PDICa3LDSfkEfdJ-35" target="OPHa_PDICa3LDSfkEfdJ-46" edge="1">
          <mxGeometry relative="1" as="geometry">
            <Array as="points">
              <mxPoint x="590" y="290" />
              <mxPoint x="590" y="362" />
            </Array>
          </mxGeometry>
        </mxCell>
        <mxCell id="OPHa_PDICa3LDSfkEfdJ-38" style="edgeStyle=orthogonalEdgeStyle;rounded=0;orthogonalLoop=1;jettySize=auto;html=1;exitX=0.75;exitY=1;exitDx=0;exitDy=0;entryX=0.376;entryY=0;entryDx=0;entryDy=0;entryPerimeter=0;endArrow=none;endFill=0;" parent="1" source="OPHa_PDICa3LDSfkEfdJ-35" target="OPHa_PDICa3LDSfkEfdJ-42" edge="1">
          <mxGeometry relative="1" as="geometry" />
        </mxCell>
        <mxCell id="OPHa_PDICa3LDSfkEfdJ-39" value="◀ provides data" style="text;html=1;strokeColor=none;fillColor=none;align=center;verticalAlign=middle;whiteSpace=wrap;rounded=0;rotation=0;" parent="1" vertex="1">
          <mxGeometry x="701" y="497.5" width="130" height="20" as="geometry" />
        </mxCell>
        <mxCell id="OPHa_PDICa3LDSfkEfdJ-40" value="" style="group" parent="1" vertex="1" connectable="0">
          <mxGeometry x="560" y="450" width="155" height="115" as="geometry" />
        </mxCell>
        <mxCell id="OPHa_PDICa3LDSfkEfdJ-41" value="" style="group" parent="OPHa_PDICa3LDSfkEfdJ-40" vertex="1" connectable="0">
          <mxGeometry width="155" height="75" as="geometry" />
        </mxCell>
        <mxCell id="OPHa_PDICa3LDSfkEfdJ-42" value="&amp;lt;&amp;lt;entity&amp;gt;&amp;gt;&lt;br&gt;Page Maker" style="rounded=0;whiteSpace=wrap;html=1;" parent="OPHa_PDICa3LDSfkEfdJ-41" vertex="1">
          <mxGeometry x="15" y="15" width="140" height="60" as="geometry" />
        </mxCell>
        <mxCell id="OPHa_PDICa3LDSfkEfdJ-43" value="" style="verticalLabelPosition=bottom;verticalAlign=top;html=1;shape=mxgraph.basic.smiley" parent="OPHa_PDICa3LDSfkEfdJ-41" vertex="1">
          <mxGeometry width="30" height="30" as="geometry" />
        </mxCell>
        <mxCell id="OPHa_PDICa3LDSfkEfdJ-44" value="&amp;nbsp;searchParams&lt;br&gt;&amp;nbsp;userInfo" style="rounded=0;whiteSpace=wrap;html=1;align=left;" parent="OPHa_PDICa3LDSfkEfdJ-40" vertex="1">
          <mxGeometry x="15" y="75" width="140" height="40" as="geometry" />
        </mxCell>
        <mxCell id="OPHa_PDICa3LDSfkEfdJ-45" value="" style="group" parent="1" vertex="1" connectable="0">
          <mxGeometry x="715" y="316" width="155" height="76" as="geometry" />
        </mxCell>
        <mxCell id="OPHa_PDICa3LDSfkEfdJ-46" value="&amp;lt;&amp;lt;boundary&amp;gt;&amp;gt;&lt;br&gt;Database Connection" style="rounded=0;whiteSpace=wrap;html=1;" parent="OPHa_PDICa3LDSfkEfdJ-45" vertex="1">
          <mxGeometry x="15" y="16" width="140" height="60" as="geometry" />
        </mxCell>
        <mxCell id="OPHa_PDICa3LDSfkEfdJ-47" value="" style="verticalLabelPosition=bottom;verticalAlign=top;html=1;shape=mxgraph.basic.smiley" parent="OPHa_PDICa3LDSfkEfdJ-45" vertex="1">
          <mxGeometry width="30" height="30" as="geometry" />
        </mxCell>
        <mxCell id="OPHa_PDICa3LDSfkEfdJ-48" style="edgeStyle=orthogonalEdgeStyle;rounded=0;orthogonalLoop=1;jettySize=auto;html=1;exitX=1;exitY=0.75;exitDx=0;exitDy=0;endArrow=none;endFill=0;" parent="1" source="OPHa_PDICa3LDSfkEfdJ-26" edge="1">
          <mxGeometry relative="1" as="geometry">
            <mxPoint x="575" y="505" as="targetPoint" />
            <Array as="points">
              <mxPoint x="575" y="505" />
            </Array>
          </mxGeometry>
        </mxCell>
        <mxCell id="OPHa_PDICa3LDSfkEfdJ-49" style="edgeStyle=orthogonalEdgeStyle;rounded=0;orthogonalLoop=1;jettySize=auto;html=1;exitX=0.5;exitY=1;exitDx=0;exitDy=0;entryX=1;entryY=0.5;entryDx=0;entryDy=0;endArrow=none;endFill=0;" parent="1" source="OPHa_PDICa3LDSfkEfdJ-46" target="OPHa_PDICa3LDSfkEfdJ-42" edge="1">
          <mxGeometry relative="1" as="geometry" />
        </mxCell>
        <mxCell id="OPHa_PDICa3LDSfkEfdJ-50" style="edgeStyle=orthogonalEdgeStyle;rounded=0;orthogonalLoop=1;jettySize=auto;html=1;exitX=1;exitY=0.5;exitDx=0;exitDy=0;endArrow=none;endFill=0;" parent="1" source="OPHa_PDICa3LDSfkEfdJ-46" edge="1">
          <mxGeometry relative="1" as="geometry">
            <mxPoint x="980" y="362" as="targetPoint" />
          </mxGeometry>
        </mxCell>
      </root>
    </mxGraphModel>
  </diagram>
</mxfile>
